<?xml version="1.0" encoding="UTF-8"?>
<svg version="1.1" xmlns="http://www.w3.org/2000/svg" width="464" height="454">
<path d="M0 0 C36.3 0 72.6 0 110 0 C110 3.96 110 7.92 110 12 C110.66 12 111.32 12 112 12 C112 16.62 112 21.24 112 26 C112.66 26 113.32 26 114 26 C114 30.62 114 35.24 114 40 C114.66 40 115.32 40 116 40 C116 44.62 116 49.24 116 54 C116.66 54 117.32 54 118 54 C118 57.96 118 61.92 118 66 C118.66 66 119.32 66 120 66 C120 70.62 120 75.24 120 80 C120.66 80 121.32 80 122 80 C122 84.62 122 89.24 122 94 C122.66 94 123.32 94 124 94 C124 98.62 124 103.24 124 108 C124.66 108 125.32 108 126 108 C126 111.96 126 115.92 126 120 C126.66 120 127.32 120 128 120 C128 124.62 128 129.24 128 134 C128.66 134 129.32 134 130 134 C130 138.62 130 143.24 130 148 C130.66 148 131.32 148 132 148 C132 152.62 132 157.24 132 162 C132.66 162 133.32 162 134 162 C134 166.62 134 171.24 134 176 C134.66 176 135.32 176 136 176 C136 179.96 136 183.92 136 188 C136.66 188 137.32 188 138 188 C138 192.62 138 197.24 138 202 C138.66 202 139.32 202 140 202 C140 206.62 140 211.24 140 216 C140.66 216 141.32 216 142 216 C142 220.62 142 225.24 142 230 C142.66 230 143.32 230 144 230 C144 226.04 144 222.08 144 218 C144.66 218 145.32 218 146 218 C146 213.38 146 208.76 146 204 C146.66 204 147.32 204 148 204 C148 199.38 148 194.76 148 190 C148.66 190 149.32 190 150 190 C150 184.72 150 179.44 150 174 C150.66 174 151.32 174 152 174 C152 169.38 152 164.76 152 160 C152.66 160 153.32 160 154 160 C154 154.72 154 149.44 154 144 C154.66 144 155.32 144 156 144 C156 139.38 156 134.76 156 130 C156.66 130 157.32 130 158 130 C158 125.38 158 120.76 158 116 C158.66 116 159.32 116 160 116 C160 110.72 160 105.44 160 100 C160.66 100 161.32 100 162 100 C162 95.38 162 90.76 162 86 C162.66 86 163.32 86 164 86 C164 81.38 164 76.76 164 72 C164.66 72 165.32 72 166 72 C166 66.72 166 61.44 166 56 C166.66 56 167.32 56 168 56 C168 51.38 168 46.76 168 42 C168.66 42 169.32 42 170 42 C170 37.38 170 32.76 170 28 C170.66 28 171.32 28 172 28 C172 22.72 172 17.44 172 12 C172.66 12 173.32 12 174 12 C174 8.04 174 4.08 174 0 C199.08 0 224.16 0 250 0 C250 4.62 250 9.24 250 14 C250.66 14 251.32 14 252 14 C252 18.62 252 23.24 252 28 C252.66 28 253.32 28 254 28 C254 32.62 254 37.24 254 42 C254.66 42 255.32 42 256 42 C256 46.62 256 51.24 256 56 C256.66 56 257.32 56 258 56 C258 59.96 258 63.92 258 68 C258.66 68 259.32 68 260 68 C260 72.62 260 77.24 260 82 C260.66 82 261.32 82 262 82 C262 86.62 262 91.24 262 96 C262.66 96 263.32 96 264 96 C264 100.62 264 105.24 264 110 C264.66 110 265.32 110 266 110 C266 113.96 266 117.92 266 122 C266.66 122 267.32 122 268 122 C268 126.62 268 131.24 268 136 C268.66 136 269.32 136 270 136 C270 140.62 270 145.24 270 150 C270.66 150 271.32 150 272 150 C272 154.62 272 159.24 272 164 C272.66 164 273.32 164 274 164 C274 168.62 274 173.24 274 178 C274.66 178 275.32 178 276 178 C276 181.96 276 185.92 276 190 C276.66 190 277.32 190 278 190 C278 194.62 278 199.24 278 204 C278.66 204 279.32 204 280 204 C280 208.62 280 213.24 280 218 C280.66 218 281.32 218 282 218 C282 223.94 282 229.88 282 236 C282.66 236 283.32 236 284 236 C284 230.06 284 224.12 284 218 C284.66 218 285.32 218 286 218 C286 212.72 286 207.44 286 202 C286.66 202 287.32 202 288 202 C288 197.38 288 192.76 288 188 C288.66 188 289.32 188 290 188 C290 183.38 290 178.76 290 174 C290.66 174 291.32 174 292 174 C292 168.72 292 163.44 292 158 C292.66 158 293.32 158 294 158 C294 153.38 294 148.76 294 144 C294.66 144 295.32 144 296 144 C296 139.38 296 134.76 296 130 C296.66 130 297.32 130 298 130 C298 124.72 298 119.44 298 114 C298.66 114 299.32 114 300 114 C300 109.38 300 104.76 300 100 C300.66 100 301.32 100 302 100 C302 95.38 302 90.76 302 86 C302.66 86 303.32 86 304 86 C304 81.38 304 76.76 304 72 C304.66 72 305.32 72 306 72 C306 66.72 306 61.44 306 56 C306.66 56 307.32 56 308 56 C308 51.38 308 46.76 308 42 C308.66 42 309.32 42 310 42 C310 37.38 310 32.76 310 28 C310.66 28 311.32 28 312 28 C312 22.72 312 17.44 312 12 C312.66 12 313.32 12 314 12 C314 8.04 314 4.08 314 0 C338.42 0 362.84 0 388 0 C388 4.62 388 9.24 388 14 C387.34 14 386.68 14 386 14 C386 18.62 386 23.24 386 28 C385.34 28 384.68 28 384 28 C384 31.96 384 35.92 384 40 C383.34 40 382.68 40 382 40 C382 43.96 382 47.92 382 52 C381.34 52 380.68 52 380 52 C380 56.62 380 61.24 380 66 C379.34 66 378.68 66 378 66 C378 69.96 378 73.92 378 78 C377.34 78 376.68 78 376 78 C376 82.62 376 87.24 376 92 C375.34 92 374.68 92 374 92 C374 95.96 374 99.92 374 104 C373.34 104 372.68 104 372 104 C372 107.96 372 111.92 372 116 C371.34 116 370.68 116 370 116 C370 120.62 370 125.24 370 130 C369.34 130 368.68 130 368 130 C368 133.96 368 137.92 368 142 C367.34 142 366.68 142 366 142 C366 146.62 366 151.24 366 156 C365.34 156 364.68 156 364 156 C364 159.96 364 163.92 364 168 C363.34 168 362.68 168 362 168 C362 171.96 362 175.92 362 180 C361.34 180 360.68 180 360 180 C360 184.62 360 189.24 360 194 C359.34 194 358.68 194 358 194 C358 197.96 358 201.92 358 206 C357.34 206 356.68 206 356 206 C356 209.96 356 213.92 356 218 C355.34 218 354.68 218 354 218 C354 222.62 354 227.24 354 232 C353.34 232 352.68 232 352 232 C352 235.96 352 239.92 352 244 C351.34 244 350.68 244 350 244 C350 248.62 350 253.24 350 258 C349.34 258 348.68 258 348 258 C348 261.96 348 265.92 348 270 C347.34 270 346.68 270 346 270 C346 274.62 346 279.24 346 284 C345.34 284 344.68 284 344 284 C344 287.96 344 291.92 344 296 C343.34 296 342.68 296 342 296 C342 299.96 342 303.92 342 308 C341.34 308 340.68 308 340 308 C340 312.62 340 317.24 340 322 C339.34 322 338.68 322 338 322 C338 325.96 338 329.92 338 334 C337.34 334 336.68 334 336 334 C336 337.96 336 341.92 336 346 C335.34 346 334.68 346 334 346 C334 350.62 334 355.24 334 360 C333.34 360 332.68 360 332 360 C332 363.96 332 367.92 332 372 C331.34 372 330.68 372 330 372 C330 376.62 330 381.24 330 386 C329.34 386 328.68 386 328 386 C328 389.96 328 393.92 328 398 C327.34 398 326.68 398 326 398 C326 402.62 326 407.24 326 412 C325.34 412 324.68 412 324 412 C324 415.96 324 419.92 324 424 C323.34 424 322.68 424 322 424 C322 427.96 322 431.92 322 436 C321.34 436 320.68 436 320 436 C320 440.62 320 445.24 320 450 C319.34 450 318.68 450 318 450 C318 450.66 318 451.32 318 452 C295.56 452 273.12 452 250 452 C250 449.36 250 446.72 250 444 C249.34 444 248.68 444 248 444 C248 440.04 248 436.08 248 432 C247.34 432 246.68 432 246 432 C246 428.04 246 424.08 246 420 C245.34 420 244.68 420 244 420 C244 415.38 244 410.76 244 406 C243.34 406 242.68 406 242 406 C242 402.04 242 398.08 242 394 C241.34 394 240.68 394 240 394 C240 389.38 240 384.76 240 380 C239.34 380 238.68 380 238 380 C238 376.04 238 372.08 238 368 C237.34 368 236.68 368 236 368 C236 364.04 236 360.08 236 356 C235.34 356 234.68 356 234 356 C234 351.38 234 346.76 234 342 C233.34 342 232.68 342 232 342 C232 338.04 232 334.08 232 330 C231.34 330 230.68 330 230 330 C230 326.04 230 322.08 230 318 C229.34 318 228.68 318 228 318 C228 313.38 228 308.76 228 304 C227.34 304 226.68 304 226 304 C226 300.04 226 296.08 226 292 C225.34 292 224.68 292 224 292 C224 287.38 224 282.76 224 278 C223.34 278 222.68 278 222 278 C222 274.04 222 270.08 222 266 C221.34 266 220.68 266 220 266 C220 262.04 220 258.08 220 254 C219.34 254 218.68 254 218 254 C218 249.38 218 244.76 218 240 C217.34 240 216.68 240 216 240 C216 236.04 216 232.08 216 228 C215.34 228 214.68 228 214 228 C214 224.7 214 221.4 214 218 C213.34 218 212.68 218 212 218 C212 222.62 212 227.24 212 232 C211.34 232 210.68 232 210 232 C210 236.62 210 241.24 210 246 C209.34 246 208.68 246 208 246 C208 249.96 208 253.92 208 258 C207.34 258 206.68 258 206 258 C206 262.62 206 267.24 206 272 C205.34 272 204.68 272 204 272 C204 276.62 204 281.24 204 286 C203.34 286 202.68 286 202 286 C202 290.62 202 295.24 202 300 C201.34 300 200.68 300 200 300 C200 304.62 200 309.24 200 314 C199.34 314 198.68 314 198 314 C198 318.62 198 323.24 198 328 C197.34 328 196.68 328 196 328 C196 332.62 196 337.24 196 342 C195.34 342 194.68 342 194 342 C194 345.96 194 349.92 194 354 C193.34 354 192.68 354 192 354 C192 358.62 192 363.24 192 368 C191.34 368 190.68 368 190 368 C190 372.62 190 377.24 190 382 C189.34 382 188.68 382 188 382 C188 386.62 188 391.24 188 396 C187.34 396 186.68 396 186 396 C186 400.62 186 405.24 186 410 C185.34 410 184.68 410 184 410 C184 414.62 184 419.24 184 424 C183.34 424 182.68 424 182 424 C182 427.96 182 431.92 182 436 C181.34 436 180.68 436 180 436 C180 440.62 180 445.24 180 450 C179.34 450 178.68 450 178 450 C178 451.32 178 452.64 178 454 C151.6 454 125.2 454 98 454 C98 450.04 98 446.08 98 442 C97.34 442 96.68 442 96 442 C96 437.38 96 432.76 96 428 C95.34 428 94.68 428 94 428 C94 424.04 94 420.08 94 416 C93.34 416 92.68 416 92 416 C92 411.38 92 406.76 92 402 C91.34 402 90.68 402 90 402 C90 398.04 90 394.08 90 390 C89.34 390 88.68 390 88 390 C88 387.36 88 384.72 88 382 C87.34 382 86.68 382 86 382 C86 376.06 86 370.12 86 364 C85.34 364 84.68 364 84 364 C84 361.36 84 358.72 84 356 C83.34 356 82.68 356 82 356 C82 354.68 82 353.36 82 352 C81.34 352 80.68 352 80 352 C80 351.34 80 350.68 80 350 C58.22 350 36.44 350 14 350 C14 352.64 14 355.28 14 358 C13.34 358 12.68 358 12 358 C12 361.3 12 364.6 12 368 C11.34 368 10.68 368 10 368 C10 372.62 10 377.24 10 382 C9.34 382 8.68 382 8 382 C8 385.96 8 389.92 8 394 C7.34 394 6.68 394 6 394 C6 397.96 6 401.92 6 406 C5.34 406 4.68 406 4 406 C4 409.96 4 413.92 4 418 C3.34 418 2.68 418 2 418 C2 422.62 2 427.24 2 432 C1.34 432 0.68 432 0 432 C0 435.96 0 439.92 0 444 C-0.66 444 -1.32 444 -2 444 C-2 447.3 -2 450.6 -2 454 C-26.42 454 -50.84 454 -76 454 C-76 450.7 -76 447.4 -76 444 C-75.34 444 -74.68 444 -74 444 C-74 440.04 -74 436.08 -74 432 C-73.34 432 -72.68 432 -72 432 C-72 428.7 -72 425.4 -72 422 C-71.34 422 -70.68 422 -70 422 C-70 418.04 -70 414.08 -70 410 C-69.34 410 -68.68 410 -68 410 C-68 406.04 -68 402.08 -68 398 C-67.34 398 -66.68 398 -66 398 C-66 394.04 -66 390.08 -66 386 C-65.34 386 -64.68 386 -64 386 C-64 382.04 -64 378.08 -64 374 C-63.34 374 -62.68 374 -62 374 C-62 370.04 -62 366.08 -62 362 C-61.34 362 -60.68 362 -60 362 C-60 358.04 -60 354.08 -60 350 C-59.34 350 -58.68 350 -58 350 C-58 346.04 -58 342.08 -58 338 C-57.34 338 -56.68 338 -56 338 C-56 334.7 -56 331.4 -56 328 C-55.34 328 -54.68 328 -54 328 C-54 324.04 -54 320.08 -54 316 C-53.34 316 -52.68 316 -52 316 C-52 312.7 -52 309.4 -52 306 C-51.34 306 -50.68 306 -50 306 C-50 302.04 -50 298.08 -50 294 C-49.34 294 -48.68 294 -48 294 C-48 290.04 -48 286.08 -48 282 C-47.34 282 -46.68 282 -46 282 C-46 278.04 -46 274.08 -46 270 C-45.34 270 -44.68 270 -44 270 C-44 266.04 -44 262.08 -44 258 C-43.34 258 -42.68 258 -42 258 C-42 254.04 -42 250.08 -42 246 C-41.34 246 -40.68 246 -40 246 C-40 240.72 -40 235.44 -40 230 C-39.34 230 -38.68 230 -38 230 C-38 226.04 -38 222.08 -38 218 C-37.34 218 -36.68 218 -36 218 C-36 216.02 -36 214.04 -36 212 C-35.34 212 -34.68 212 -34 212 C-34 208.04 -34 204.08 -34 200 C-33.34 200 -32.68 200 -32 200 C-32 196.04 -32 192.08 -32 188 C-31.34 188 -30.68 188 -30 188 C-30 184.04 -30 180.08 -30 176 C-29.34 176 -28.68 176 -28 176 C-28 172.04 -28 168.08 -28 164 C-27.34 164 -26.68 164 -26 164 C-26 160.04 -26 156.08 -26 152 C-25.34 152 -24.68 152 -24 152 C-24 148.04 -24 144.08 -24 140 C-23.34 140 -22.68 140 -22 140 C-22 136.04 -22 132.08 -22 128 C-21.34 128 -20.68 128 -20 128 C-20 124.7 -20 121.4 -20 118 C-19.34 118 -18.68 118 -18 118 C-18 114.04 -18 110.08 -18 106 C-17.34 106 -16.68 106 -16 106 C-16 102.04 -16 98.08 -16 94 C-15.34 94 -14.68 94 -14 94 C-14 90.04 -14 86.08 -14 82 C-13.34 82 -12.68 82 -12 82 C-12 78.04 -12 74.08 -12 70 C-11.34 70 -10.68 70 -10 70 C-10 66.04 -10 62.08 -10 58 C-9.34 58 -8.68 58 -8 58 C-8 54.04 -8 50.08 -8 46 C-7.34 46 -6.68 46 -6 46 C-6 42.04 -6 38.08 -6 34 C-5.34 34 -4.68 34 -4 34 C-4 29.38 -4 24.76 -4 20 C-3.34 20 -2.68 20 -2 20 C-2 16.04 -2 12.08 -2 8 C-1.34 8 -0.68 8 0 8 C0 5.36 0 2.72 0 0 Z M48 116 C48 118.64 48 121.28 48 124 C47.34 124 46.68 124 46 124 C46 128.62 46 133.24 46 138 C45.34 138 44.68 138 44 138 C44 142.62 44 147.24 44 152 C43.34 152 42.68 152 42 152 C42 156.62 42 161.24 42 166 C41.34 166 40.68 166 40 166 C40 170.62 40 175.24 40 180 C39.34 180 38.68 180 38 180 C38 184.62 38 189.24 38 194 C37.34 194 36.68 194 36 194 C36 198.62 36 203.24 36 208 C35.34 208 34.68 208 34 208 C34 212.62 34 217.24 34 222 C33.34 222 32.68 222 32 222 C32 226.62 32 231.24 32 236 C31.34 236 30.68 236 30 236 C30 240.62 30 245.24 30 250 C29.34 250 28.68 250 28 250 C28 254.62 28 259.24 28 264 C27.34 264 26.68 264 26 264 C26 269.28 26 274.56 26 280 C41.18 280 56.36 280 72 280 C72 276.7 72 273.4 72 270 C71.34 270 70.68 270 70 270 C70 265.38 70 260.76 70 256 C69.34 256 68.68 256 68 256 C68 251.38 68 246.76 68 242 C67.34 242 66.68 242 66 242 C66 237.38 66 232.76 66 228 C65.34 228 64.68 228 64 228 C64 223.38 64 218.76 64 214 C63.34 214 62.68 214 62 214 C62 209.38 62 204.76 62 200 C61.34 200 60.68 200 60 200 C60 195.38 60 190.76 60 186 C59.34 186 58.68 186 58 186 C58 181.38 58 176.76 58 172 C57.34 172 56.68 172 56 172 C56 167.38 56 162.76 56 158 C55.34 158 54.68 158 54 158 C54 153.38 54 148.76 54 144 C53.34 144 52.68 144 52 144 C52 139.38 52 134.76 52 130 C51.34 130 50.68 130 50 130 C50 125.38 50 120.76 50 116 C49.34 116 48.68 116 48 116 Z " fill="#1B1B1B" transform="translate(76,0)"/>
<path d="M0 0 C36.3 0 72.6 0 110 0 C110 3.96 110 7.92 110 12 C110.66 12 111.32 12 112 12 C112 16.62 112 21.24 112 26 C112.66 26 113.32 26 114 26 C114 30.62 114 35.24 114 40 C114.66 40 115.32 40 116 40 C116 44.29 116 48.58 116 53 C115.67 53 115.34 53 115 53 C112.87862603 40.79845329 110.86047008 28.59320371 109.25 16.3125 C109.05893677 14.87185181 109.05893677 14.87185181 108.86401367 13.40209961 C108.32491944 9.18341332 108 5.27750135 108 1 C90.51 1.33 73.02 1.66 55 2 C71.70440146 94.94624038 88.4162682 187.89113342 105.14613342 280.83279419 C105.9194954 285.12915768 106.69284161 289.425524 107.46617126 293.72189331 C107.65500763 294.77100525 107.843844 295.82011719 108.03840268 296.90102041 C108.41680458 299.00330104 108.79520436 301.10558205 109.17360198 303.20786345 C110.10080529 308.35910186 111.02808736 313.51032608 111.9555378 318.66152 C113.54788723 327.50584315 115.13998949 336.35020971 116.72972357 345.19500339 C117.56378115 349.83530394 118.3982241 354.47553512 119.23291016 359.11572266 C119.39354564 360.00875131 119.55418113 360.90177996 119.71968436 361.82187009 C121.81677849 373.47612386 123.93236784 385.12683826 126.06751072 396.77417958 C126.86173877 401.1100757 127.65267709 405.44657347 128.44368213 409.78305858 C129.26832973 414.30051598 130.10285804 418.8160809 130.93928528 423.33137512 C131.35338302 425.59869456 131.76711965 427.86607998 132.18041992 430.13354492 C132.36796782 431.13182249 132.55551571 432.13010006 132.74874687 433.15862846 C133.71950994 438.53571063 134.18713144 443.5355762 134 449 C130.7 449.66 127.4 450.32 124 451 C141.49 451.33 158.98 451.66 177 452 C177.66 446.06 178.32 440.12 179 434 C179.67459166 428.92331081 180.36502914 423.85381694 181.09375 418.78515625 C181.28791055 417.42801813 181.48204237 416.07087591 181.67614746 414.71372986 C182.07733951 411.9147119 182.48103913 409.11606857 182.88623047 406.31762695 C183.40450359 402.73449522 183.91280847 399.1500194 184.41899872 395.56516361 C184.81362168 392.78235711 185.21508633 390.00056945 185.6184845 387.21902275 C185.90129128 385.25705726 186.17696724 383.29406814 186.45251465 381.33106995 C186.62609497 380.14810837 186.79967529 378.96514679 186.97851562 377.74633789 C187.12792603 376.70586807 187.27733643 375.66539825 187.43127441 374.59339905 C188 372 188 372 190 369 C190 373.29 190 377.58 190 382 C189.34 382 188.68 382 188 382 C188 386.62 188 391.24 188 396 C187.34 396 186.68 396 186 396 C186 400.62 186 405.24 186 410 C185.34 410 184.68 410 184 410 C184 414.62 184 419.24 184 424 C183.34 424 182.68 424 182 424 C182 427.96 182 431.92 182 436 C181.34 436 180.68 436 180 436 C180 440.62 180 445.24 180 450 C179.34 450 178.68 450 178 450 C178 451.32 178 452.64 178 454 C151.6 454 125.2 454 98 454 C98 450.04 98 446.08 98 442 C97.34 442 96.68 442 96 442 C96 437.38 96 432.76 96 428 C95.34 428 94.68 428 94 428 C94 424.04 94 420.08 94 416 C93.34 416 92.68 416 92 416 C92 411.38 92 406.76 92 402 C91.34 402 90.68 402 90 402 C90 398.04 90 394.08 90 390 C89.34 390 88.68 390 88 390 C88 387.36 88 384.72 88 382 C87.34 382 86.68 382 86 382 C86 376.06 86 370.12 86 364 C85.34 364 84.68 364 84 364 C84 361.36 84 358.72 84 356 C83.34 356 82.68 356 82 356 C82 354.68 82 353.36 82 352 C81.34 352 80.68 352 80 352 C80 351.34 80 350.68 80 350 C58.22 350 36.44 350 14 350 C14 352.64 14 355.28 14 358 C13.34 358 12.68 358 12 358 C12 361.3 12 364.6 12 368 C11.34 368 10.68 368 10 368 C10 372.62 10 377.24 10 382 C9.34 382 8.68 382 8 382 C8 385.96 8 389.92 8 394 C7.34 394 6.68 394 6 394 C6 397.96 6 401.92 6 406 C5.34 406 4.68 406 4 406 C4 409.96 4 413.92 4 418 C3.34 418 2.68 418 2 418 C2 422.62 2 427.24 2 432 C1.34 432 0.68 432 0 432 C0 435.96 0 439.92 0 444 C-0.66 444 -1.32 444 -2 444 C-2 447.3 -2 450.6 -2 454 C-26.42 454 -50.84 454 -76 454 C-76 450.7 -76 447.4 -76 444 C-75.34 444 -74.68 444 -74 444 C-74 440.04 -74 436.08 -74 432 C-73.34 432 -72.68 432 -72 432 C-72 428.7 -72 425.4 -72 422 C-71.34 422 -70.68 422 -70 422 C-70 418.04 -70 414.08 -70 410 C-69.34 410 -68.68 410 -68 410 C-68 406.04 -68 402.08 -68 398 C-67.34 398 -66.68 398 -66 398 C-66 394.04 -66 390.08 -66 386 C-65.34 386 -64.68 386 -64 386 C-64 382.04 -64 378.08 -64 374 C-63.34 374 -62.68 374 -62 374 C-62 370.04 -62 366.08 -62 362 C-61.34 362 -60.68 362 -60 362 C-60 358.04 -60 354.08 -60 350 C-59.34 350 -58.68 350 -58 350 C-58 346.04 -58 342.08 -58 338 C-57.34 338 -56.68 338 -56 338 C-56 334.7 -56 331.4 -56 328 C-55.34 328 -54.68 328 -54 328 C-54 324.04 -54 320.08 -54 316 C-53.34 316 -52.68 316 -52 316 C-52 312.7 -52 309.4 -52 306 C-51.34 306 -50.68 306 -50 306 C-50 302.04 -50 298.08 -50 294 C-49.34 294 -48.68 294 -48 294 C-48 290.04 -48 286.08 -48 282 C-47.34 282 -46.68 282 -46 282 C-46 278.04 -46 274.08 -46 270 C-45.34 270 -44.68 270 -44 270 C-44 266.04 -44 262.08 -44 258 C-43.34 258 -42.68 258 -42 258 C-42 254.04 -42 250.08 -42 246 C-41.34 246 -40.68 246 -40 246 C-40 240.72 -40 235.44 -40 230 C-39.34 230 -38.68 230 -38 230 C-38 226.04 -38 222.08 -38 218 C-37.34 218 -36.68 218 -36 218 C-36 216.02 -36 214.04 -36 212 C-35.34 212 -34.68 212 -34 212 C-34 208.04 -34 204.08 -34 200 C-33.34 200 -32.68 200 -32 200 C-32 196.04 -32 192.08 -32 188 C-31.34 188 -30.68 188 -30 188 C-30 184.04 -30 180.08 -30 176 C-29.34 176 -28.68 176 -28 176 C-28 172.04 -28 168.08 -28 164 C-27.34 164 -26.68 164 -26 164 C-26 160.04 -26 156.08 -26 152 C-25.34 152 -24.68 152 -24 152 C-24 148.04 -24 144.08 -24 140 C-23.34 140 -22.68 140 -22 140 C-22 136.04 -22 132.08 -22 128 C-21.34 128 -20.68 128 -20 128 C-20 124.7 -20 121.4 -20 118 C-19.34 118 -18.68 118 -18 118 C-18 114.04 -18 110.08 -18 106 C-17.34 106 -16.68 106 -16 106 C-16 102.04 -16 98.08 -16 94 C-15.34 94 -14.68 94 -14 94 C-14 90.04 -14 86.08 -14 82 C-13.34 82 -12.68 82 -12 82 C-12 78.04 -12 74.08 -12 70 C-11.34 70 -10.68 70 -10 70 C-10 66.04 -10 62.08 -10 58 C-9.34 58 -8.68 58 -8 58 C-8 54.04 -8 50.08 -8 46 C-7.34 46 -6.68 46 -6 46 C-6 42.04 -6 38.08 -6 34 C-5.34 34 -4.68 34 -4 34 C-4 29.38 -4 24.76 -4 20 C-3.34 20 -2.68 20 -2 20 C-2 16.04 -2 12.08 -2 8 C-1.34 8 -0.68 8 0 8 C0 5.36 0 2.72 0 0 Z M48 116 C48 118.64 48 121.28 48 124 C47.34 124 46.68 124 46 124 C46 128.62 46 133.24 46 138 C45.34 138 44.68 138 44 138 C44 142.62 44 147.24 44 152 C43.34 152 42.68 152 42 152 C42 156.62 42 161.24 42 166 C41.34 166 40.68 166 40 166 C40 170.62 40 175.24 40 180 C39.34 180 38.68 180 38 180 C38 184.62 38 189.24 38 194 C37.34 194 36.68 194 36 194 C36 198.62 36 203.24 36 208 C35.34 208 34.68 208 34 208 C34 212.62 34 217.24 34 222 C33.34 222 32.68 222 32 222 C32 226.62 32 231.24 32 236 C31.34 236 30.68 236 30 236 C30 240.62 30 245.24 30 250 C29.34 250 28.68 250 28 250 C28 254.62 28 259.24 28 264 C27.34 264 26.68 264 26 264 C26 269.28 26 274.56 26 280 C41.18 280 56.36 280 72 280 C72 276.7 72 273.4 72 270 C71.34 270 70.68 270 70 270 C70 265.38 70 260.76 70 256 C69.34 256 68.68 256 68 256 C68 251.38 68 246.76 68 242 C67.34 242 66.68 242 66 242 C66 237.38 66 232.76 66 228 C65.34 228 64.68 228 64 228 C64 223.38 64 218.76 64 214 C63.34 214 62.68 214 62 214 C62 209.38 62 204.76 62 200 C61.34 200 60.68 200 60 200 C60 195.38 60 190.76 60 186 C59.34 186 58.68 186 58 186 C58 181.38 58 176.76 58 172 C57.34 172 56.68 172 56 172 C56 167.38 56 162.76 56 158 C55.34 158 54.68 158 54 158 C54 153.38 54 148.76 54 144 C53.34 144 52.68 144 52 144 C52 139.38 52 134.76 52 130 C51.34 130 50.68 130 50 130 C50 125.38 50 120.76 50 116 C49.34 116 48.68 116 48 116 Z " fill="#80168F" transform="translate(76,0)"/>
<path d="M0 0 C24.42 0 48.84 0 74 0 C74 4.62 74 9.24 74 14 C73.34 14 72.68 14 72 14 C72 18.62 72 23.24 72 28 C71.34 28 70.68 28 70 28 C70 31.96 70 35.92 70 40 C69.34 40 68.68 40 68 40 C68 43.96 68 47.92 68 52 C67.34 52 66.68 52 66 52 C66 56.62 66 61.24 66 66 C65.34 66 64.68 66 64 66 C64 69.96 64 73.92 64 78 C63.34 78 62.68 78 62 78 C62 82.62 62 87.24 62 92 C61.34 92 60.68 92 60 92 C60 95.96 60 99.92 60 104 C59.34 104 58.68 104 58 104 C58 107.96 58 111.92 58 116 C57.34 116 56.68 116 56 116 C56 120.62 56 125.24 56 130 C55.34 130 54.68 130 54 130 C54 133.96 54 137.92 54 142 C53.34 142 52.68 142 52 142 C52 146.62 52 151.24 52 156 C51.34 156 50.68 156 50 156 C50 159.96 50 163.92 50 168 C49.34 168 48.68 168 48 168 C48 171.96 48 175.92 48 180 C47.34 180 46.68 180 46 180 C46 184.62 46 189.24 46 194 C45.34 194 44.68 194 44 194 C44 197.96 44 201.92 44 206 C43.34 206 42.68 206 42 206 C42 209.96 42 213.92 42 218 C41.34 218 40.68 218 40 218 C40 222.62 40 227.24 40 232 C39.34 232 38.68 232 38 232 C38 235.96 38 239.92 38 244 C37.34 244 36.68 244 36 244 C36 248.62 36 253.24 36 258 C35.34 258 34.68 258 34 258 C34 261.96 34 265.92 34 270 C33.34 270 32.68 270 32 270 C32 274.62 32 279.24 32 284 C31.34 284 30.68 284 30 284 C30 287.96 30 291.92 30 296 C29.34 296 28.68 296 28 296 C28 299.96 28 303.92 28 308 C27.34 308 26.68 308 26 308 C26 312.62 26 317.24 26 322 C25.34 322 24.68 322 24 322 C24 325.96 24 329.92 24 334 C23.34 334 22.68 334 22 334 C22 337.96 22 341.92 22 346 C21.34 346 20.68 346 20 346 C20 350.62 20 355.24 20 360 C19.34 360 18.68 360 18 360 C18 363.96 18 367.92 18 372 C17.34 372 16.68 372 16 372 C16 376.62 16 381.24 16 386 C15.34 386 14.68 386 14 386 C14 389.96 14 393.92 14 398 C13.34 398 12.68 398 12 398 C12 402.62 12 407.24 12 412 C11.34 412 10.68 412 10 412 C10 415.96 10 419.92 10 424 C9.34 424 8.68 424 8 424 C8 427.96 8 431.92 8 436 C7.34 436 6.68 436 6 436 C6 440.62 6 445.24 6 450 C5.34 450 4.68 450 4 450 C3.67 450.66 3.34 451.32 3 452 C2.91611526 451.46160555 2.83223053 450.9232111 2.74580383 450.36850166 C-2.13999787 419.03329064 -7.16062635 387.7221711 -12.3125 356.4296875 C-12.44820782 355.60532353 -12.58391563 354.78095957 -12.72373581 353.93161488 C-14.38886635 343.81808265 -16.05691508 333.70503275 -17.72625065 323.59219384 C-20.00187833 309.80632124 -22.27450608 296.01995393 -24.54612064 282.23341954 C-25.33864462 277.42402272 -26.13204638 272.61477182 -26.92621708 267.80564666 C-27.41508759 264.84452109 -27.90336143 261.88329734 -28.39149666 258.92205048 C-28.6165758 257.55744987 -28.84191299 256.19289179 -29.06753349 254.82838058 C-31.16234004 242.15812736 -31.16234004 242.15812736 -32 236 C-31.34 236 -30.68 236 -30 236 C-30 230.06 -30 224.12 -30 218 C-29.34 218 -28.68 218 -28 218 C-28 212.72 -28 207.44 -28 202 C-27.34 202 -26.68 202 -26 202 C-26 197.38 -26 192.76 -26 188 C-25.34 188 -24.68 188 -24 188 C-24 183.38 -24 178.76 -24 174 C-23.34 174 -22.68 174 -22 174 C-22 168.72 -22 163.44 -22 158 C-21.34 158 -20.68 158 -20 158 C-20 153.38 -20 148.76 -20 144 C-19.34 144 -18.68 144 -18 144 C-18 139.38 -18 134.76 -18 130 C-17.34 130 -16.68 130 -16 130 C-16 124.72 -16 119.44 -16 114 C-15.34 114 -14.68 114 -14 114 C-14 109.38 -14 104.76 -14 100 C-13.34 100 -12.68 100 -12 100 C-12 95.38 -12 90.76 -12 86 C-11.34 86 -10.68 86 -10 86 C-10 81.38 -10 76.76 -10 72 C-9.34 72 -8.68 72 -8 72 C-8 66.72 -8 61.44 -8 56 C-7.34 56 -6.68 56 -6 56 C-6 51.38 -6 46.76 -6 42 C-5.34 42 -4.68 42 -4 42 C-4 37.38 -4 32.76 -4 28 C-3.34 28 -2.68 28 -2 28 C-2 22.72 -2 17.44 -2 12 C-1.34 12 -0.68 12 0 12 C0 8.04 0 4.08 0 0 Z " fill="#3E3E3E" transform="translate(390,0)"/>
<path d="M0 0 C0.66 0 1.32 0 2 0 C2 1.98 2 3.96 2 6 C2.680625 6.13535156 3.36125 6.27070313 4.0625 6.41015625 C23.17031867 10.65351492 48.65571726 22.43091874 59.64187622 39.55992126 C61.8310594 42.29920124 61.8310594 42.29920124 65.29034424 42.60127258 C66.59606384 42.59016953 67.90178345 42.57906647 69.24707031 42.56762695 C69.96941864 42.56835709 70.69176697 42.56908722 71.43600464 42.56983948 C73.81748229 42.5663631 76.19699024 42.52750427 78.578125 42.48828125 C80.23149548 42.47895319 81.8848798 42.47183704 83.53826904 42.46684265 C87.88531805 42.44777201 92.23152878 42.39867146 96.57824707 42.34332275 C101.01559102 42.29213121 105.45307073 42.26932886 109.890625 42.24414062 C118.59417715 42.19055176 127.29688765 42.10261615 136 42 C136.99 49.92 136.99 49.92 138 58 C137.34 58 136.68 58 136 58 C136 55.36 136 52.72 136 50 C135.34 50 134.68 50 134 50 C134 48.68 134 47.36 134 46 C133.34 46 132.68 46 132 46 C132 45.34 132 44.68 132 44 C110.22 44 88.44 44 66 44 C66 46.64 66 49.28 66 52 C65.34 52 64.68 52 64 52 C64 55.3 64 58.6 64 62 C63.34 62 62.68 62 62 62 C62 66.62 62 71.24 62 76 C61.34 76 60.68 76 60 76 C60 79.96 60 83.92 60 88 C59.34 88 58.68 88 58 88 C58 91.96 58 95.92 58 100 C57.34 100 56.68 100 56 100 C56 103.96 56 107.92 56 112 C55.34 112 54.68 112 54 112 C54 116.62 54 121.24 54 126 C53.34 126 52.68 126 52 126 C52 129.96 52 133.92 52 138 C51.34 138 50.68 138 50 138 C50 141.3 50 144.6 50 148 C25.58 148 1.16 148 -24 148 C-24 144.7 -24 141.4 -24 138 C-23.34 138 -22.68 138 -22 138 C-22 134.04 -22 130.08 -22 126 C-21.34 126 -20.68 126 -20 126 C-20 122.7 -20 119.4 -20 116 C-19.34 116 -18.68 116 -18 116 C-18 112.04 -18 108.08 -18 104 C-17.34 104 -16.68 104 -16 104 C-16 100.04 -16 96.08 -16 92 C-15.34 92 -14.68 92 -14 92 C-14 88.04 -14 84.08 -14 80 C-13.34 80 -12.68 80 -12 80 C-12 76.04 -12 72.08 -12 68 C-11.34 68 -10.68 68 -10 68 C-10 64.04 -10 60.08 -10 56 C-9.34 56 -8.68 56 -8 56 C-8 52.04 -8 48.08 -8 44 C-7.34 44 -6.68 44 -6 44 C-6 40.04 -6 36.08 -6 32 C-5.34 32 -4.68 32 -4 32 C-4 28.7 -4 25.4 -4 22 C-3.34 22 -2.68 22 -2 22 C-2 18.04 -2 14.08 -2 10 C-1.34 10 -0.68 10 0 10 C0 6.7 0 3.4 0 0 Z " fill="#BE28D4" transform="translate(24,306)"/>
<path d="M0 0 C3.3 0 6.6 0 10 0 C13.91807744 21.66641172 17.83455744 43.33311198 21.75 65 C21.90205037 65.84139007 22.05410073 66.68278014 22.21075869 67.54966688 C30.58142342 113.87023097 38.93919697 160.19310196 47.27734375 206.51953125 C47.47261075 207.60441377 47.66787776 208.68929629 47.86906195 209.80705404 C51.74002414 231.31395699 55.60998614 252.82103982 59.47837126 274.32840645 C61.11136101 283.40744518 62.74463442 292.48643286 64.37804794 301.56539536 C65.08803197 305.51171767 65.79789584 309.45806157 66.50766373 313.40442276 C70.40868499 335.0934577 74.31926051 356.78072249 78.24973857 378.46444046 C78.85574578 381.8078166 79.46155554 385.15122845 80.06730747 388.49465084 C81.80541471 398.0874078 83.54412263 407.68005191 85.28713083 417.27191973 C85.99107968 421.14762055 86.69364284 425.02357165 87.3958528 428.89958787 C87.72274122 430.70208773 88.05025529 432.50447425 88.37842393 434.30674148 C88.8252633 436.76102868 89.26998842 439.21568974 89.71418762 441.67045593 C89.84599558 442.39136518 89.97780354 443.11227442 90.11360568 443.8550294 C91 448.77192538 91 448.77192538 91 451 C82.09 451 73.18 451 64 451 C64 450.67 64 450.34 64 450 C69.28 449.34 74.56 448.68 80 448 C76.15968187 424.61903904 72.13643805 401.27900968 67.9102273 377.96483564 C67.12545331 373.63221783 66.34366076 369.29906181 65.56149292 364.9659729 C64.20819791 357.4709248 62.85326831 349.97617384 61.49719238 342.48162842 C59.33884538 330.55285682 57.18423733 318.62341138 55.03027344 306.69384766 C54.47162738 303.59996004 53.91297479 300.5060736 53.35432053 297.41218746 C52.97735563 295.32451478 52.60039489 293.23684135 52.22343826 291.14916718 C50.87777166 283.69672464 49.53167668 276.24435954 48.1854248 268.79202271 C40.3916198 225.64704935 32.61531589 182.49892757 24.8465786 139.3494339 C22.66410164 127.22745411 20.48090927 115.10560376 18.29656518 102.98396027 C16.79364537 94.64346622 15.29152951 86.30282763 13.79003417 77.96207702 C12.92423405 73.15270013 12.05811766 68.34338084 11.19106674 63.53422928 C7.3756694 42.37028894 3.60855092 21.20035145 0 0 Z " fill="#46124E" transform="translate(130,1)"/>
<path d="M0 0 C0.33 0 0.66 0 1 0 C1 3.96 1 7.92 1 12 C0.34 12 -0.32 12 -1 12 C-1 15.96 -1 19.92 -1 24 C-1.66 24 -2.32 24 -3 24 C-3 28.62 -3 33.24 -3 38 C-3.66 38 -4.32 38 -5 38 C-5 41.96 -5 45.92 -5 50 C-5.66 50 -6.32 50 -7 50 C-7 54.62 -7 59.24 -7 64 C-7.66 64 -8.32 64 -9 64 C-9 67.96 -9 71.92 -9 76 C-9.66 76 -10.32 76 -11 76 C-11 79.96 -11 83.92 -11 88 C-11.66 88 -12.32 88 -13 88 C-13 92.62 -13 97.24 -13 102 C-13.66 102 -14.32 102 -15 102 C-15 105.96 -15 109.92 -15 114 C-15.66 114 -16.32 114 -17 114 C-17 117.96 -17 121.92 -17 126 C-17.66 126 -18.32 126 -19 126 C-19 130.62 -19 135.24 -19 140 C-19.66 140 -20.32 140 -21 140 C-21 143.96 -21 147.92 -21 152 C-21.66 152 -22.32 152 -23 152 C-23 156.62 -23 161.24 -23 166 C-23.66 166 -24.32 166 -25 166 C-25 169.96 -25 173.92 -25 178 C-25.66 178 -26.32 178 -27 178 C-27 182.62 -27 187.24 -27 192 C-27.66 192 -28.32 192 -29 192 C-29 195.96 -29 199.92 -29 204 C-29.66 204 -30.32 204 -31 204 C-31 207.96 -31 211.92 -31 216 C-31.66 216 -32.32 216 -33 216 C-33 220.62 -33 225.24 -33 230 C-33.66 230 -34.32 230 -35 230 C-35 233.96 -35 237.92 -35 242 C-35.66 242 -36.32 242 -37 242 C-37 245.96 -37 249.92 -37 254 C-37.66 254 -38.32 254 -39 254 C-39 258.62 -39 263.24 -39 268 C-39.66 268 -40.32 268 -41 268 C-41 271.96 -41 275.92 -41 280 C-41.66 280 -42.32 280 -43 280 C-43 284.62 -43 289.24 -43 294 C-43.66 294 -44.32 294 -45 294 C-45 297.96 -45 301.92 -45 306 C-45.66 306 -46.32 306 -47 306 C-47 310.62 -47 315.24 -47 320 C-47.66 320 -48.32 320 -49 320 C-49 323.96 -49 327.92 -49 332 C-49.66 332 -50.32 332 -51 332 C-51 335.96 -51 339.92 -51 344 C-51.66 344 -52.32 344 -53 344 C-53 348.62 -53 353.24 -53 358 C-53.66 358 -54.32 358 -55 358 C-55.33 358.66 -55.66 359.32 -56 360 C-54.45419256 345.53755179 -52.27849145 331.18530597 -50.0625 316.8125 C-49.66584982 314.22690097 -49.26928631 311.64128864 -48.87280273 309.05566406 C-43.19043305 272.04721096 -37.36307621 235.06055643 -31.46484375 198.0859375 C-30.64301174 192.93232631 -29.82137018 187.77868482 -29 182.625 C-28.79822144 181.35921112 -28.59644287 180.09342224 -28.3885498 178.78927612 C-24.69525571 155.59719352 -21.13725453 132.38550973 -17.60614014 109.16827393 C-14.19870797 86.76507058 -10.71518064 64.37585849 -7.11787415 42.0022583 C-6.22721311 36.45086547 -5.35821289 30.89633982 -4.5 25.33984375 C-4.38171844 24.57535919 -4.26343689 23.81087463 -4.14157104 23.02322388 C-3.59381318 19.48082649 -3.04872526 15.93805469 -2.50830078 12.39453125 C-2.32251465 11.19054687 -2.13672852 9.9865625 -1.9453125 8.74609375 C-1.78562988 7.70122803 -1.62594727 6.6563623 -1.46142578 5.57983398 C-1 3 -1 3 0 0 Z " fill="#C4C4C4" transform="translate(449,92)"/>
<path d="M0 0 C0.33 0 0.66 0 1 0 C6.34835936 33.99765535 11.6923536 67.99596137 17 102 C20.33391441 123.35733485 23.67807739 144.71303342 27.03378296 166.06695557 C27.50809877 169.08527944 27.98223982 172.10363068 28.45620728 175.12200928 C30.63382871 188.98962724 32.81267615 202.85698811 35.02734375 216.71875 C35.31740419 218.53824529 35.60744433 220.35774382 35.89746094 222.17724609 C36.40371346 225.35262808 36.91388904 228.52734088 37.42675781 231.70166016 C37.64271825 233.05368856 37.85854902 234.40573769 38.07421875 235.7578125 C38.25557373 236.8833252 38.43692871 238.00883789 38.6237793 239.16845703 C39 242 39 242 39 246 C38.34 246 37.68 246 37 246 C37 243.36 37 240.72 37 238 C36.34 238 35.68 238 35 238 C35 234.04 35 230.08 35 226 C34.34 226 33.68 226 33 226 C33 222.04 33 218.08 33 214 C32.34 214 31.68 214 31 214 C31 209.38 31 204.76 31 200 C30.34 200 29.68 200 29 200 C29 196.04 29 192.08 29 188 C28.34 188 27.68 188 27 188 C27 183.38 27 178.76 27 174 C26.34 174 25.68 174 25 174 C25 170.04 25 166.08 25 162 C24.34 162 23.68 162 23 162 C23 158.04 23 154.08 23 150 C22.34 150 21.68 150 21 150 C21 145.38 21 140.76 21 136 C20.34 136 19.68 136 19 136 C19 132.04 19 128.08 19 124 C18.34 124 17.68 124 17 124 C17 120.04 17 116.08 17 112 C16.34 112 15.68 112 15 112 C15 107.38 15 102.76 15 98 C14.34 98 13.68 98 13 98 C13 94.04 13 90.08 13 86 C12.34 86 11.68 86 11 86 C11 81.38 11 76.76 11 72 C10.34 72 9.68 72 9 72 C9 68.04 9 64.08 9 60 C8.34 60 7.68 60 7 60 C7 56.04 7 52.08 7 48 C6.34 48 5.68 48 5 48 C5 43.38 5 38.76 5 34 C4.34 34 3.68 34 3 34 C3 30.04 3 26.08 3 22 C2.34 22 1.68 22 1 22 C1 18.7 1 15.4 1 12 C0.34 12 -0.32 12 -1 12 C-1 16.62 -1 21.24 -1 26 C-1.66 26 -2.32 26 -3 26 C-3.27653447 18.11876761 -3.58973451 7.17946902 0 0 Z " fill="#CDCDCD" transform="translate(289,206)"/>
<path d="M0 0 C0.33 0 0.66 0 1 0 C1 4.29 1 8.58 1 13 C0.34 13 -0.32 13 -1 13 C-1 17.62 -1 22.24 -1 27 C-1.66 27 -2.32 27 -3 27 C-3 31.62 -3 36.24 -3 41 C-3.66 41 -4.32 41 -5 41 C-5 45.62 -5 50.24 -5 55 C-5.66 55 -6.32 55 -7 55 C-7 58.96 -7 62.92 -7 67 C-7.66 67 -8.32 67 -9 67 C-9 71.62 -9 76.24 -9 81 C-9.66 81 -10.32 81 -11 81 C-11 82.32 -11 83.64 -11 85 C-37.4 85 -63.8 85 -91 85 C-91 81.7 -91 78.4 -91 75 C-90.67 75 -90.34 75 -90 75 C-90 77.64 -90 80.28 -90 83 C-64.26 83 -38.52 83 -12 83 C-11.34 77.06 -10.68 71.12 -10 65 C-9.31487272 59.92289889 -8.61248566 54.85374639 -7.87109375 49.78515625 C-7.67438446 48.42804037 -7.4778606 47.0708976 -7.2815094 45.71372986 C-6.87587966 42.91474454 -6.46817097 40.11607301 -6.05883789 37.31762695 C-5.53482454 33.73404844 -5.01611545 30.14972447 -4.4988699 26.56516361 C-4.09682917 23.78281906 -3.69214504 21.00086407 -3.28663826 18.21902275 C-3.00103138 16.25658332 -2.71759099 14.29382898 -2.43418884 12.33106995 C-2.26053299 11.14810837 -2.08687714 9.96514679 -1.90795898 8.74633789 C-1.68051247 7.18563316 -1.68051247 7.18563316 -1.44847107 5.59339905 C-1 3 -1 3 0 0 Z " fill="#CCCACC" transform="translate(265,369)"/>
<path d="M0 0 C0.33 1.32 0.66 2.64 1 4 C1.680625 4.13535156 2.36125 4.27070313 3.0625 4.41015625 C23.74979093 9.00427538 45.88705165 20.941924 59.2109375 37.796875 C60.88350779 40.25955859 60.88350779 40.25955859 64 41 C63.67 43.64 63.34 46.28 63 49 C62.67 48.34 62.34 47.68 62 47 C61.34 47 60.68 47 60 47 C58.5546875 45.53125 58.5546875 45.53125 56.875 43.5 C41.66875967 25.77493459 22.22253638 14.01764307 0 7 C0 4.69 0 2.38 0 0 Z " fill="#A42DB3" transform="translate(25,308)"/>
<path d="M0 0 C24.42 0 48.84 0 74 0 C74 4.62 74 9.24 74 14 C73.34 14 72.68 14 72 14 C72 18.62 72 23.24 72 28 C71.34 28 70.68 28 70 28 C70 31.96 70 35.92 70 40 C69.34 40 68.68 40 68 40 C68 43.96 68 47.92 68 52 C67.34 52 66.68 52 66 52 C66 56.62 66 61.24 66 66 C65.34 66 64.68 66 64 66 C64 69.96 64 73.92 64 78 C63.34 78 62.68 78 62 78 C62 82.62 62 87.24 62 92 C61.34 92 60.68 92 60 92 C59.55650424 83.20581371 60.93262301 74.7439574 62.3359375 66.09765625 C62.57840606 64.56898418 62.82022537 63.040209 63.06143188 61.51133728 C63.69493247 57.50816526 64.33783677 53.50655836 64.98260498 49.50518799 C65.5039965 46.25948724 66.01871975 43.01274616 66.53307152 39.7659235 C67.15267874 35.85532004 67.77507678 31.94516298 68.3984375 28.03515625 C68.51491009 27.30451525 68.63138268 26.57387424 68.75138474 25.82109261 C69.08721612 23.71911827 69.42487344 21.6174458 69.76318359 19.51586914 C70.04964249 17.73243858 70.04964249 17.73243858 70.34188843 15.91297913 C71.17935884 10.93357384 72.09674661 5.96789362 73 1 C49.57 1 26.14 1 2 1 C2 3.64 2 6.28 2 9 C1.83018168 10.57894906 1.61973065 12.15485963 1.34375 13.71875 C1.20839844 14.50507813 1.07304687 15.29140625 0.93359375 16.1015625 C0.79050781 16.89304687 0.64742188 17.68453125 0.5 18.5 C0.35691406 19.32242187 0.21382813 20.14484375 0.06640625 20.9921875 C-0.28306912 22.99584627 -0.64068156 24.99808298 -1 27 C-1.33 27 -1.66 27 -2 27 C-2 22.05 -2 17.1 -2 12 C-1.34 12 -0.68 12 0 12 C0 8.04 0 4.08 0 0 Z " fill="#ADADAD" transform="translate(390,0)"/>
<path d="M0 0 C0.33 0 0.66 0 1 0 C1 4.62 1 9.24 1 14 C0.34 14 -0.32 14 -1 14 C-1 17.96 -1 21.92 -1 26 C-1.66 26 -2.32 26 -3 26 C-3 30.62 -3 35.24 -3 40 C-3.66 40 -4.32 40 -5 40 C-5 44.62 -5 49.24 -5 54 C-5.66 54 -6.32 54 -7 54 C-7 58.62 -7 63.24 -7 68 C-7.66 68 -8.32 68 -9 68 C-9 72.62 -9 77.24 -9 82 C-9.66 82 -10.32 82 -11 82 C-11 86.62 -11 91.24 -11 96 C-11.66 96 -12.32 96 -13 96 C-13 100.62 -13 105.24 -13 110 C-13.66 110 -14.32 110 -15 110 C-15 113.96 -15 117.92 -15 122 C-15.66 122 -16.32 122 -17 122 C-17 126.62 -17 131.24 -17 136 C-17.66 136 -18.32 136 -19 136 C-18.47672366 124.97189194 -17.33740801 114.16963346 -15.70703125 103.25390625 C-15.47738003 101.68281245 -15.24831481 100.11163289 -15.01979065 98.54037476 C-14.41553701 94.39672615 -13.80345011 90.25427302 -13.18956757 86.11204147 C-12.55694257 81.83454904 -11.93138183 77.55602388 -11.30517578 73.27758789 C-10.32139621 66.56116377 -9.33368835 59.84532971 -8.34326172 53.12988281 C-7.20645611 45.41921932 -6.08459693 37.7064794 -4.97265625 29.9921875 C-4.5636496 27.16191582 -4.15445074 24.33167199 -3.74520874 21.50143433 C-3.50009711 19.80387815 -3.255642 18.10622704 -3.01187134 16.40847778 C-2.6849851 14.13521458 -2.35471826 11.86247001 -2.0234375 9.58984375 C-1.84731934 8.37159912 -1.67120117 7.15335449 -1.48974609 5.89819336 C-1 3 -1 3 0 0 Z " fill="#C2C2C2" transform="translate(285,232)"/>
<path d="M0 0 C0.33 0 0.66 0 1 0 C1.10529526 0.67522202 1.21059052 1.35044403 1.31907654 2.04612732 C2.35475292 8.68690962 3.39094732 15.32761094 4.42764378 21.96823406 C4.98895958 25.56379481 5.55014643 29.15937558 6.11102295 32.75500488 C8.50440018 48.09709026 10.90415931 63.43805879 13.3451786 78.77264595 C13.66434077 80.77798612 13.98313269 82.7833848 14.30180359 84.7888031 C15.29971722 91.06738907 16.30051553 97.34548825 17.30639648 103.62280273 C17.66534281 105.87872106 18.02415582 108.13466061 18.3828125 110.390625 C18.54794846 111.41372269 18.71308441 112.43682037 18.88322449 113.49092102 C19.03149185 114.4275206 19.17975922 115.36412018 19.33251953 116.32910156 C19.46224152 117.13978088 19.5919635 117.95046021 19.72561646 118.78570557 C20 121 20 121 20 125 C19.34 125 18.68 125 18 125 C18 122.36 18 119.72 18 117 C17.34 117 16.68 117 16 117 C16 113.04 16 109.08 16 105 C15.34 105 14.68 105 14 105 C14 101.04 14 97.08 14 93 C13.34 93 12.68 93 12 93 C12 88.38 12 83.76 12 79 C11.34 79 10.68 79 10 79 C10 75.04 10 71.08 10 67 C9.34 67 8.68 67 8 67 C8 62.38 8 57.76 8 53 C7.34 53 6.68 53 6 53 C6 49.04 6 45.08 6 41 C5.34 41 4.68 41 4 41 C4 37.04 4 33.08 4 29 C3.34 29 2.68 29 2 29 C2 24.38 2 19.76 2 15 C1.34 15 0.68 15 0 15 C0 10.05 0 5.1 0 0 Z " fill="#CBCBCB" transform="translate(308,327)"/>
<path d="M0 0 C0.33 0 0.66 0 1 0 C1 3.96 1 7.92 1 12 C0.34 12 -0.32 12 -1 12 C-1 15.96 -1 19.92 -1 24 C-1.66 24 -2.32 24 -3 24 C-3 28.62 -3 33.24 -3 38 C-3.66 38 -4.32 38 -5 38 C-5 41.96 -5 45.92 -5 50 C-5.66 50 -6.32 50 -7 50 C-7 54.62 -7 59.24 -7 64 C-7.66 64 -8.32 64 -9 64 C-9 67.96 -9 71.92 -9 76 C-9.66 76 -10.32 76 -11 76 C-11 79.96 -11 83.92 -11 88 C-11.66 88 -12.32 88 -13 88 C-13 92.62 -13 97.24 -13 102 C-13.66 102 -14.32 102 -15 102 C-15 105.96 -15 109.92 -15 114 C-15.66 114 -16.32 114 -17 114 C-16.95875 114.94875 -16.9175 115.8975 -16.875 116.875 C-17 120 -17 120 -19 122 C-17.77490097 111.00319309 -16.32077958 100.07981946 -14.57421875 89.15234375 C-14.34213361 87.6839309 -14.11035571 86.21546946 -13.87886047 84.7469635 C-13.27380201 80.91370772 -12.66485366 77.08108072 -12.05493164 73.24859619 C-11.45172281 69.45449281 -10.85188569 65.65985695 -10.25195312 61.86523438 C-9.54077738 57.36726502 -8.82917011 52.8693676 -8.11471558 48.37191772 C-6.91662478 40.8258743 -5.73009444 33.27825543 -4.56494141 25.72705078 C-4.33406643 24.23441831 -4.10317581 22.74178826 -3.87226868 21.24916077 C-3.43744224 18.43760818 -3.00597678 15.62556682 -2.57633972 12.81321716 C-2.38332779 11.56460403 -2.19031586 10.31599091 -1.99145508 9.02954102 C-1.82341873 7.93335953 -1.65538239 6.83717804 -1.48225403 5.70777893 C-1 3 -1 3 0 0 Z " fill="#BDBDBD" transform="translate(449,92)"/>
<path d="M0 0 C36.3 0 72.6 0 110 0 C110 3.96 110 7.92 110 12 C110.66 12 111.32 12 112 12 C112 16.62 112 21.24 112 26 C112.66 26 113.32 26 114 26 C114 30.62 114 35.24 114 40 C114.66 40 115.32 40 116 40 C116 44.29 116 48.58 116 53 C115.67 53 115.34 53 115 53 C112.87862603 40.79845329 110.86047008 28.59320371 109.25 16.3125 C109.12262451 15.35206787 108.99524902 14.39163574 108.86401367 13.40209961 C108.32491944 9.18341332 108 5.27750135 108 1 C73.02 1.33 38.04 1.66 2 2 C1.01 7.94 0.02 13.88 -1 20 C-1.33 20 -1.66 20 -2 20 C-2 16.04 -2 12.08 -2 8 C-1.34 8 -0.68 8 0 8 C0 5.36 0 2.72 0 0 Z " fill="#B9B0B8" transform="translate(76,0)"/>
<path d="M0 0 C23.43 0 46.86 0 71 0 C71.99 7.92 71.99 7.92 73 16 C72.34 16 71.68 16 71 16 C71 13.36 71 10.72 71 8 C70.34 8 69.68 8 69 8 C69 6.68 69 5.36 69 4 C68.34 4 67.68 4 67 4 C67 3.34 67 2.68 67 2 C45.22 2 23.44 2 1 2 C1 4.64 1 7.28 1 10 C0.34 10 -0.32 10 -1 10 C-1 13.3 -1 16.6 -1 20 C-1.66 20 -2.32 20 -3 20 C-2.88305763 18.35357453 -2.75590767 16.70787398 -2.625 15.0625 C-2.55539063 14.14597656 -2.48578125 13.22945313 -2.4140625 12.28515625 C-1.89217885 8.1445511 -0.90532993 4.07398469 0 0 Z " fill="#E2DBDF" transform="translate(89,348)"/>
<path d="M0 0 C0.66 0 1.32 0 2 0 C2 2.64 2 5.28 2 8 C25.43 8 48.86 8 73 8 C73 6.35 73 4.7 73 3 C73.33 3 73.66 3 74 3 C74 5.31 74 7.62 74 10 C49.58 10 25.16 10 0 10 C0 6.7 0 3.4 0 0 Z " fill="#C0B3C1" transform="translate(0,444)"/>
<path d="M0 0 C0.33 0 0.66 0 1 0 C1 4.29 1 8.58 1 13 C16.18 13 31.36 13 47 13 C47 10.69 47 8.38 47 6 C47.33 6 47.66 6 48 6 C48 8.97 48 11.94 48 15 C31.83 15 15.66 15 -1 15 C-1 9.48261078 -0.87401535 5.24409211 0 0 Z " fill="#E5E2E3" transform="translate(101,267)"/>
<path d="M0 0 C0.33 0 0.66 0 1 0 C1 4.62 1 9.24 1 14 C0.34 14 -0.32 14 -1 14 C-1 17.96 -1 21.92 -1 26 C-1.66 26 -2.32 26 -3 26 C-3 30.62 -3 35.24 -3 40 C-3.66 40 -4.32 40 -5 40 C-5 44.62 -5 49.24 -5 54 C-5.66 54 -6.32 54 -7 54 C-6.95875 54.94875 -6.9175 55.8975 -6.875 56.875 C-7 60 -7 60 -9 62 C-7.72766612 49.71835222 -6.14822903 37.50387451 -4.34057617 25.28979492 C-3.93025743 22.51349532 -3.52639019 19.73630509 -3.12304688 16.95898438 C-2.86235466 15.18223653 -2.60130115 13.40554165 -2.33984375 11.62890625 C-2.22003647 10.80403214 -2.10022919 9.97915802 -1.97679138 9.12928772 C-1.50708403 5.97625819 -1.01028733 3.030862 0 0 Z " fill="#CDCDCD" transform="translate(285,232)"/>
<path d="M0 0 C21.78 0 43.56 0 66 0 C66 0.33 66 0.66 66 1 C44.88 1 23.76 1 2 1 C2 3.64 2 6.28 2 9 C1.83018168 10.57894906 1.61973065 12.15485963 1.34375 13.71875 C1.20839844 14.50507813 1.07304687 15.29140625 0.93359375 16.1015625 C0.79050781 16.89304687 0.64742188 17.68453125 0.5 18.5 C0.35691406 19.32242187 0.21382813 20.14484375 0.06640625 20.9921875 C-0.28306912 22.99584627 -0.64068156 24.99808298 -1 27 C-1.33 27 -1.66 27 -2 27 C-2 22.05 -2 17.1 -2 12 C-1.34 12 -0.68 12 0 12 C0 8.04 0 4.08 0 0 Z " fill="#B8B8B8" transform="translate(390,0)"/>
<path d="M0 0 C0.33 0 0.66 0 1 0 C1 4.29 1 8.58 1 13 C0.34 13 -0.32 13 -1 13 C-1 17.62 -1 22.24 -1 27 C-1.66 27 -2.32 27 -3 27 C-3 31.62 -3 36.24 -3 41 C-3.66 41 -4.32 41 -5 41 C-5 45.62 -5 50.24 -5 55 C-5.66 55 -6.32 55 -7 55 C-7.61091957 45.13285461 -5.97170919 35.53698639 -4.49145508 25.81787109 C-4.05946049 22.98003299 -3.63913521 20.14064784 -3.22070312 17.30078125 C-2.951189 15.49208781 -2.68103022 13.68349029 -2.41015625 11.875 C-2.28407486 11.0281665 -2.15799347 10.18133301 -2.02809143 9.30883789 C-1.53762889 6.10121573 -1.0282269 3.08468071 0 0 Z " fill="#D1D1D1" transform="translate(265,369)"/>
<path d="M0 0 C1.71413086 0.00676758 1.71413086 0.00676758 3.46289062 0.01367188 C6.24611698 0.02531717 9.02931588 0.04324661 11.8125 0.0625 C12.4725 5.3425 13.1325 10.6225 13.8125 16.0625 C13.1525 16.0625 12.4925 16.0625 11.8125 16.0625 C11.8125 13.4225 11.8125 10.7825 11.8125 8.0625 C11.1525 8.0625 10.4925 8.0625 9.8125 8.0625 C9.8125 6.7425 9.8125 5.4225 9.8125 4.0625 C9.1525 4.0625 8.4925 4.0625 7.8125 4.0625 C7.8125 3.4025 7.8125 2.7425 7.8125 2.0625 C-2.7475 2.0625 -13.3075 2.0625 -24.1875 2.0625 C-24.1875 1.7325 -24.1875 1.4025 -24.1875 1.0625 C-16.10222452 0.1612006 -8.13075897 -0.06192142 0 0 Z " fill="#E7E4E5" transform="translate(148.1875,347.9375)"/>
<path d="M0 0 C0.66 0 1.32 0 2 0 C2 4.62 2 9.24 2 14 C2.66 14 3.32 14 4 14 C4 17.96 4 21.92 4 26 C4.66 26 5.32 26 6 26 C6 30.62 6 35.24 6 40 C6.66 40 7.32 40 8 40 C8 44.62 8 49.24 8 54 C7.67 54 7.34 54 7 54 C6.89453857 53.27635254 6.78907715 52.55270508 6.68041992 51.80712891 C6.18464177 48.41281057 5.68639892 45.01886106 5.1875 41.625 C5.00735352 40.39668457 4.82720703 39.16836914 4.64160156 37.90283203 C3.50067343 30.18793658 2.30567004 22.48787943 0.86401367 14.82275391 C-0.02409844 9.83762568 -0.13091737 5.04031872 0 0 Z " fill="#CECECE" transform="translate(198,94)"/>
<path d="M0 0 C0.33 0 0.66 0 1 0 C1 3.96 1 7.92 1 12 C0.34 12 -0.32 12 -1 12 C-1 15.96 -1 19.92 -1 24 C-1.66 24 -2.32 24 -3 24 C-3 28.62 -3 33.24 -3 38 C-3.66 38 -4.32 38 -5 38 C-5 40.64 -5 43.28 -5 46 C-5.99 46.495 -5.99 46.495 -7 47 C-6.43080908 38.1148872 -5.2472675 29.37124363 -3.84326172 20.58764648 C-3.49563371 18.41015012 -3.15557835 16.23156231 -2.81640625 14.05273438 C-1.14233701 3.42701102 -1.14233701 3.42701102 0 0 Z " fill="#B7B7B7" transform="translate(449,92)"/>
<path d="M0 0 C0.66 0 1.32 0 2 0 C2.36700393 9.23014889 0.95350372 18.04889353 -0.5 27.125 C-0.74157938 28.66916242 -0.98247023 30.21343273 -1.22265625 31.7578125 C-1.80717663 35.50649884 -2.40098444 39.25360375 -3 43 C-3.33 43 -3.66 43 -4 43 C-4 38.05 -4 33.1 -4 28 C-3.34 28 -2.68 28 -2 28 C-2 23.38 -2 18.76 -2 14 C-1.34 14 -0.68 14 0 14 C0 9.38 0 4.76 0 0 Z " fill="#C9C9C9" transform="translate(234,116)"/>
<path d="M0 0 C0.33 0 0.66 0 1 0 C1 1.98 1 3.96 1 6 C0.34 6 -0.32 6 -1 6 C-1 10.62 -1 15.24 -1 20 C-1.66 20 -2.32 20 -3 20 C-3 23.96 -3 27.92 -3 32 C-3.66 32 -4.32 32 -5 32 C-5 34.97 -5 37.94 -5 41 C-5.99 41.495 -5.99 41.495 -7 42 C-6.3424965 33.63574555 -5.28443903 25.36169187 -4.0625 17.0625 C-3.89298828 15.85787109 -3.72347656 14.65324219 -3.54882812 13.41210938 C-3.37931641 12.25646484 -3.20980469 11.10082031 -3.03515625 9.91015625 C-2.8844165 8.86996338 -2.73367676 7.82977051 -2.57836914 6.75805664 C-2.03813446 4.18185098 -1.30254594 2.27087035 0 0 Z " fill="#BFBFBF" transform="translate(431,212)"/>
<path d="M0 0 C0.33 0 0.66 0 1 0 C1 3.96 1 7.92 1 12 C0.34 12 -0.32 12 -1 12 C-1 15.96 -1 19.92 -1 24 C-1.66 24 -2.32 24 -3 24 C-3 28.62 -3 33.24 -3 38 C-3.66 38 -4.32 38 -5 38 C-5.29802529 30.33252485 -4.40904509 23.16378878 -3.0625 15.625 C-2.78889648 14.02591797 -2.78889648 14.02591797 -2.50976562 12.39453125 C-1.06848669 4.06131851 -1.06848669 4.06131851 0 0 Z " fill="#B6B6B6" transform="translate(455,54)"/>
<path d="M0 0 C0.66 0 1.32 0 2 0 C2 4.62 2 9.24 2 14 C2.66 14 3.32 14 4 14 C4 18.62 4 23.24 4 28 C4.66 28 5.32 28 6 28 C6 32.29 6 36.58 6 41 C5.67 41 5.34 41 5 41 C2.51681574 27.33472123 0.37767773 13.89854063 0 0 Z " fill="#BEBEBE" transform="translate(186,12)"/>
<path d="M0 0 C0.33 0 0.66 0 1 0 C1 2.64 1 5.28 1 8 C0.34 8 -0.32 8 -1 8 C-1 12.62 -1 17.24 -1 22 C-1.66 22 -2.32 22 -3 22 C-3 26.62 -3 31.24 -3 36 C-3.66 36 -4.32 36 -5 36 C-5.15584741 29.11437797 -4.58531147 22.56451796 -3.625 15.75 C-3.49867188 14.78320312 -3.37234375 13.81640625 -3.2421875 12.8203125 C-3.11328125 11.88445312 -2.984375 10.94859375 -2.8515625 9.984375 C-2.73635254 9.14616211 -2.62114258 8.30794922 -2.50244141 7.44433594 C-1.95840583 4.79764781 -1.07104379 2.47571854 0 0 Z " fill="#D8D8D8" transform="translate(277,292)"/>
<path d="M0 0 C0.66 0 1.32 0 2 0 C2 4.62 2 9.24 2 14 C2.66 14 3.32 14 4 14 C4 10.04 4 6.08 4 2 C4.66 2 5.32 2 6 2 C6.31732638 9.77449624 5.11855299 17.32992235 4 25 C3.67 25 3.34 25 3 25 C-0.44419134 8.29157175 -0.44419134 8.29157175 0 0 Z " fill="#D9D9D9" transform="translate(216,216)"/>
<path d="M0 0 C2.357865 2.357865 2.47680308 3.46545426 3.0703125 6.69140625 C3.24433594 7.63693359 3.41835938 8.58246094 3.59765625 9.55664062 C3.85869141 11.04454102 3.85869141 11.04454102 4.125 12.5625 C4.30675781 13.52736328 4.48851562 14.49222656 4.67578125 15.48632812 C5.74172116 21.42112893 6.18661602 26.97230243 6 33 C5.34 33 4.68 33 4 33 C4 29.04 4 25.08 4 21 C3.34 21 2.68 21 2 21 C2 16.38 2 11.76 2 7 C1.34 7 0.68 7 0 7 C0 4.69 0 2.38 0 0 Z " fill="#DDDDDD" transform="translate(302,297)"/>
<path d="M0 0 C0.66 0 1.32 0 2 0 C0.35 10.89 -1.3 21.78 -3 33 C-3.33 33 -3.66 33 -4 33 C-4 28.05 -4 23.1 -4 18 C-3.34 18 -2.68 18 -2 18 C-2 14.04 -2 10.08 -2 6 C-1.34 6 -0.68 6 0 6 C0 4.02 0 2.04 0 0 Z " fill="#D8D5D7" transform="translate(40,212)"/>
<path d="M0 0 C0.33 0 0.66 0 1 0 C1 5.28 1 10.56 1 16 C0.34 16 -0.32 16 -1 16 C-1 20.62 -1 25.24 -1 30 C-1.66 30 -2.32 30 -3 30 C-3.33 30.66 -3.66 31.32 -4 32 C-2.85960382 21.29968686 -1.60824518 10.64179257 0 0 Z " fill="#B9B9B9" transform="translate(257,420)"/>
<path d="M0 0 C0.66 0 1.32 0 2 0 C2.61877873 10.19839013 0.74126083 19.99811489 -1 30 C-1.33 30 -1.66 30 -2 30 C-2 25.38 -2 20.76 -2 16 C-1.34 16 -0.68 16 0 16 C0 10.72 0 5.44 0 0 Z " fill="#CCCCCC" transform="translate(226,174)"/>
<path d="M0 0 C0.66 0 1.32 0 2 0 C1.67 2.97 1.34 5.94 1 9 C1.81984375 9.19335938 2.6396875 9.38671875 3.484375 9.5859375 C4.56203125 9.84632813 5.6396875 10.10671875 6.75 10.375 C7.81734375 10.63023437 8.8846875 10.88546875 9.984375 11.1484375 C12.55852722 11.87533541 14.67600186 12.7026224 17 14 C13.8568669 15.57156655 11.634536 14.11705576 8.375 13.0625 C7.18648437 12.68222656 5.99796875 12.30195313 4.7734375 11.91015625 C3.85820312 11.60980469 2.94296875 11.30945313 2 11 C-0.12508244 14.18762365 -0.5020163 16.26512223 -1 20 C-1.33 20 -1.66 20 -2 20 C-2 16.7 -2 13.4 -2 10 C-1.34 10 -0.68 10 0 10 C0 6.7 0 3.4 0 0 Z " fill="#C67EC9" transform="translate(24,306)"/>
<path d="M0 0 C0.66 0 1.32 0 2 0 C2.15366997 6.39651259 1.64846374 12.27698902 0.5 18.5625 C0.35691406 19.38041016 0.21382813 20.19832031 0.06640625 21.04101562 C-0.28228312 23.02854504 -0.64016085 25.01445896 -1 27 C-1.33 27 -1.66 27 -2 27 C-2 22.05 -2 17.1 -2 12 C-1.34 12 -0.68 12 0 12 C0 8.04 0 4.08 0 0 Z " fill="#B2B2B2" transform="translate(390,0)"/>
<path d="M0 0 C0.33 0 0.66 0 1 0 C1 4.29 1 8.58 1 13 C5.29 13 9.58 13 14 13 C10.47320901 15.35119399 8.97120515 15.21443452 4.8125 15.125 C3.72582031 15.10695313 2.63914062 15.08890625 1.51953125 15.0703125 C0.27236328 15.03550781 0.27236328 15.03550781 -1 15 C-1.09038099 9.84828377 -0.84681133 5.08086796 0 0 Z " fill="#DFDADC" transform="translate(101,267)"/>
<path d="M0 0 C0.66 0 1.32 0 2 0 C2 3.96 2 7.92 2 12 C2.66 12 3.32 12 4 12 C4 16.62 4 21.24 4 26 C3.67 26 3.34 26 3 26 C2.4926043 22.79279138 1.995421 19.58407837 1.5 16.375 C1.35691406 15.47136719 1.21382813 14.56773437 1.06640625 13.63671875 C0.36265833 9.04560134 -0.18584778 4.66168185 0 0 Z " fill="#D2D2D2" transform="translate(350,178)"/>
<path d="M0 0 C0.66 0 1.32 0 2 0 C2 4.62 2 9.24 2 14 C2.66 14 3.32 14 4 14 C4 18.62 4 23.24 4 28 C3.67 28 3.34 28 3 28 C2.49171557 24.64703509 1.99488543 21.29246657 1.5 17.9375 C1.35691406 16.99455078 1.21382813 16.05160156 1.06640625 15.08007812 C0.32190861 9.99267758 -0.17113566 5.1412006 0 0 Z " fill="#CECECE" transform="translate(346,150)"/>
<path d="M0 0 C0.66 0 1.32 0 2 0 C1.54362211 9.46383622 0.81847768 18.67809502 -1 28 C-1.33 28 -1.66 28 -2 28 C-2 23.38 -2 18.76 -2 14 C-1.34 14 -0.68 14 0 14 C0 9.38 0 4.76 0 0 Z " fill="#C5C5C5" transform="translate(380,72)"/>
<path d="M0 0 C0.66 0 1.32 0 2 0 C2 3.96 2 7.92 2 12 C2.66 12 3.32 12 4 12 C4 16.62 4 21.24 4 26 C3.67 26 3.34 26 3 26 C2.4926043 22.79279138 1.995421 19.58407837 1.5 16.375 C1.35691406 15.47136719 1.21382813 14.56773438 1.06640625 13.63671875 C0.36265833 9.04560134 -0.18584778 4.66168185 0 0 Z " fill="#C4C4C4" transform="translate(332,56)"/>
<path d="M0 0 C0.66 0 1.32 0 2 0 C2 4.62 2 9.24 2 14 C2.66 14 3.32 14 4 14 C4 18.29 4 22.58 4 27 C3.67 27 3.34 27 3 27 C2.49129467 23.813827 1.99463419 20.62588525 1.5 17.4375 C1.35691406 16.54224609 1.21382813 15.64699219 1.06640625 14.72460938 C0.30107612 9.74996352 -0.16568252 5.03260643 0 0 Z " fill="#BFBFBF" transform="translate(328,28)"/>
<path d="M0 0 C0.66 0 1.32 0 2 0 C2 4.62 2 9.24 2 14 C2.66 14 3.32 14 4 14 C4 18.29 4 22.58 4 27 C3.67 27 3.34 27 3 27 C2.49129467 23.813827 1.99463419 20.62588525 1.5 17.4375 C1.35691406 16.54224609 1.21382812 15.64699219 1.06640625 14.72460938 C0.30107612 9.74996352 -0.16568252 5.03260643 0 0 Z " fill="#D5D5D5" transform="translate(206,148)"/>
<path d="M0 0 C0.33 0 0.66 0 1 0 C1.50642925 3.06147257 2.00399322 6.12432299 2.5 9.1875 C2.64308594 10.05181641 2.78617187 10.91613281 2.93359375 11.80664062 C3.59314262 15.90526577 4.20709266 19.83226024 4 24 C3.34 24 2.68 24 2 24 C2 21.03 2 18.06 2 15 C1.34 15 0.68 15 0 15 C0 10.05 0 5.1 0 0 Z " fill="#C1C1C1" transform="translate(308,327)"/>
<path d="M0 0 C0.33 0 0.66 0 1 0 C1.99 7.92 2.98 15.84 4 24 C3.34 24 2.68 24 2 24 C2 21.36 2 18.72 2 16 C1.34 16 0.68 16 0 16 C0 10.72 0 5.44 0 0 Z " fill="#E3DDE0" transform="translate(162,366)"/>
<path d="M0 0 C0.33 0 0.66 0 1 0 C1 2.97 1 5.94 1 9 C0.34 9 -0.32 9 -1 9 C-1 12.96 -1 16.92 -1 21 C-1.66 21 -2.32 21 -3 21 C-2.88553728 18.43663746 -2.75880499 15.87486555 -2.625 13.3125 C-2.5940625 12.59126953 -2.563125 11.87003906 -2.53125 11.12695312 C-2.30664413 7.02789606 -1.82259091 3.75631541 0 0 Z " fill="#D1D1D1" transform="translate(421,275)"/>
<path d="M0 0 C0.33 0 0.66 0 1 0 C1 2.31 1 4.62 1 7 C0.34 7 -0.32 7 -1 7 C-1 11.62 -1 16.24 -1 21 C-1.66 21 -2.32 21 -3 21 C-3.22568659 14.00371558 -3.20152859 6.40305718 0 0 Z " fill="#D0D0D0" transform="translate(403,391)"/>
<path d="M0 0 C0.33 0 0.66 0 1 0 C1.5339744 3.08120684 2.04985551 6.16517859 2.5625 9.25 C2.71396484 10.12269531 2.86542969 10.99539063 3.02148438 11.89453125 C3.16005859 12.73886719 3.29863281 13.58320313 3.44140625 14.453125 C3.57232666 15.22817383 3.70324707 16.00322266 3.83813477 16.80175781 C4.00822774 19.11173847 3.68559092 20.80085213 3 23 C2.67 20.69 2.34 18.38 2 16 C1.34 16 0.68 16 0 16 C0 10.72 0 5.44 0 0 Z " fill="#C1C1C1" transform="translate(300,276)"/>
<path d="M0 0 C0.33 0 0.66 0 1 0 C1 4.95 1 9.9 1 15 C0.34 15 -0.32 15 -1 15 C-0.938125 16.423125 -0.938125 16.423125 -0.875 17.875 C-1 21 -1 21 -3 23 C-2.6902353 20.1038504 -2.37728812 17.20810424 -2.0625 14.3125 C-1.97548828 13.49587891 -1.88847656 12.67925781 -1.79882812 11.83789062 C-1.36241272 7.84549781 -0.88697624 3.92347148 0 0 Z " fill="#C3C3C3" transform="translate(279,271)"/>
<path d="M0 0 C0.33 0 0.66 0 1 0 C1 2.64 1 5.28 1 8 C0.34 8 -0.32 8 -1 8 C-1 12.62 -1 17.24 -1 22 C-1.66 22 -2.32 22 -3 22 C-2.88525534 19.45749979 -2.7585303 16.91652662 -2.625 14.375 C-2.5940625 13.66214844 -2.563125 12.94929688 -2.53125 12.21484375 C-2.28979845 7.82847392 -1.60657269 4.1405166 0 0 Z " fill="#DADADA" transform="translate(269,346)"/>
<path d="M0 0 C0.33 1.32 0.66 2.64 1 4 C0.34 4 -0.32 4 -1 4 C-1 8.62 -1 13.24 -1 18 C-1.66 18 -2.32 18 -3 18 C-3.33 18.66 -3.66 19.32 -4 20 C-3.71828671 17.22782133 -3.42508608 14.45769759 -3.125 11.6875 C-3.04636719 10.90181641 -2.96773438 10.11613281 -2.88671875 9.30664062 C-2.80292969 8.54931641 -2.71914063 7.79199219 -2.6328125 7.01171875 C-2.55949707 6.31522217 -2.48618164 5.61872559 -2.41064453 4.90112305 C-2 3 -2 3 0 0 Z " fill="#C8C8C8" transform="translate(397,432)"/>
<path d="M0 0 C0.33 0 0.66 0 1 0 C1.50509639 3.08252089 2.00317999 6.16613525 2.5 9.25 C2.64308594 10.12269531 2.78617187 10.99539063 2.93359375 11.89453125 C3.13662109 13.16103516 3.13662109 13.16103516 3.34375 14.453125 C3.46943359 15.22817383 3.59511719 16.00322266 3.72460938 16.80175781 C4 19 4 19 4 23 C3.34 23 2.68 23 2 23 C2 20.36 2 17.72 2 15 C1.34 15 0.68 15 0 15 C0 10.05 0 5.1 0 0 Z " fill="#B6B6B6" transform="translate(324,429)"/>
<path d="M0 0 C0.33 0 0.66 0 1 0 C1 4.29 1 8.58 1 13 C0.34 13 -0.32 13 -1 13 C-0.938125 14.423125 -0.938125 14.423125 -0.875 15.875 C-1 19 -1 19 -3 21 C-2.69152766 18.06202558 -2.37839777 15.12467718 -2.0625 12.1875 C-1.97548828 11.35412109 -1.88847656 10.52074219 -1.79882812 9.66210938 C-1.71181641 8.85966797 -1.62480469 8.05722656 -1.53515625 7.23046875 C-1.456604 6.49207764 -1.37805176 5.75368652 -1.29711914 4.99291992 C-1 3 -1 3 0 0 Z " fill="#C4C4C4" transform="translate(265,369)"/>
<path d="M0 0 C3.89839291 5.84758937 4.29973431 13.10611082 4 20 C3.34 20 2.68 20 2 20 C2 16.04 2 12.08 2 8 C1.34 8 0.68 8 0 8 C0 5.36 0 2.72 0 0 Z " fill="#D9D9D9" transform="translate(296,258)"/>
<path d="M0 0 C0.33 0 0.66 0 1 0 C1 1.98 1 3.96 1 6 C0.34 6 -0.32 6 -1 6 C-1 10.62 -1 15.24 -1 20 C-1.66 20 -2.32 20 -3 20 C-2.88581333 17.41577541 -2.75907638 14.83320487 -2.625 12.25 C-2.5940625 11.52039063 -2.563125 10.79078125 -2.53125 10.0390625 C-2.3251506 6.26057344 -2.08487157 3.22053332 0 0 Z " fill="#CCCCCC" transform="translate(431,212)"/>
<path d="M0 0 C0.66 0 1.32 0 2 0 C3.69832609 5.83799592 4.25287193 10.93107371 4 17 C3.34 17 2.68 17 2 17 C2 13.04 2 9.08 2 5 C1.34 5 0.68 5 0 5 C0 3.35 0 1.7 0 0 Z " fill="#D7D7D7" transform="translate(310,351)"/>
<path d="M0 0 C0.33 0 0.66 0 1 0 C1.33 3.3 1.66 6.6 2 10 C1.34 10 0.68 10 0 10 C0 12.64 0 15.28 0 18 C-0.66 18 -1.32 18 -2 18 C-1.34 12.06 -0.68 6.12 0 0 Z " fill="#D1CACF" transform="translate(124,106)"/>
<path d="M0 0 C0.33 0 0.66 0 1 0 C1 4.95 1 9.9 1 15 C0.34 15 -0.32 15 -1 15 C-1.33 15.66 -1.66 16.32 -2 17 C-1.34 11.39 -0.68 5.78 0 0 Z " fill="#A6A6A6" transform="translate(457,37)"/>
<path d="M0 0 C0.33 0 0.66 0 1 0 C1.33 3.3 1.66 6.6 2 10 C1.01 10 0.02 10 -1 10 C-0.67 6.7 -0.34 3.4 0 0 Z " fill="#BBBBBB" transform="translate(321,410)"/>
<path d="M0 0 C0.33 0 0.66 0 1 0 C1.33 3.3 1.66 6.6 2 10 C1.01 10 0.02 10 -1 10 C-0.67 6.7 -0.34 3.4 0 0 Z " fill="#C2C2C2" transform="translate(305,308)"/>
<path d="M0 0 C0.33 0 0.66 0 1 0 C1.33 3.3 1.66 6.6 2 10 C1.01 9.67 0.02 9.34 -1 9 C-1.125 2.25 -1.125 2.25 0 0 Z " fill="#AAAAAA" transform="translate(289,206)"/>
</svg>
